<?xml version="1.0" encoding="utf-8"?>
<!-- Generator: Adobe Illustrator 18.1.1, SVG Export Plug-In . SVG Version: 6.00 Build 0)  -->
<svg version="1.1" id="Layer_1" xmlns="http://www.w3.org/2000/svg" xmlns:xlink="http://www.w3.org/1999/xlink" x="0px" y="0px"
	 viewBox="0 0 1366 768" enable-background="new 0 0 1366 768" xml:space="preserve">
<g>
	<g>
		<path d="M1044.6,163.4c26.6-2.2,53.4-1.4,79.8,2.6c24.6,3.7,49.9,9.4,72.6,19.8c11.2,5.2,21.6,11.8,30.4,20.6
			c8.8,8.7,15.9,18.8,22.4,29.3c13.1,20.9,24,43.2,32.5,66.3c33.1,89.4,34.5,199.9-30.9,275.5c-14,16.2-30.6,30.1-49.4,40.5
			c-21.6,11.9-45.6,18.7-69.9,22.7c-24.5,4-49.5,5.7-74.3,5.9c-24.3,0.2-48.9-1.6-72.2-8.9c-43.6-13.7-76-48.1-95-88.9
			c-10.8-23.1-17.4-47.9-21.8-72.9c-4.5-26-7.4-52.7-7-79c0.4-26.1,5-51.8,15.9-75.6c10.4-22.7,24.8-43.2,39.5-63.2
			c28.5-38.9,62.3-78.2,109.8-93.5c11-3.5,22.4-5.6,34-5.8c3.2-0.1,3.2-5.1,0-5c-50.6,1.3-92.6,33.8-124,70.9
			c-16.4,19.4-31.7,40.2-45.5,61.6c-14.1,21.9-25.6,45.3-30.7,71c-5.2,26.1-4.6,52.9-2.1,79.2c2.5,26.4,6.5,52.9,14,78.4
			c13,44.5,38,87.2,78,112.4c42.4,26.6,94.9,26.4,143.2,22.9c49.1-3.6,98.1-13.9,137.1-45.6c35.4-28.7,59.5-69.9,70.7-113.8
			c12.9-50.5,9.8-104.2-3.2-154.3c-6.5-24.9-15.5-49.1-26.9-72.1c-11-22.1-23.7-45.2-41.7-62.5c-18-17.3-41.8-26-65.4-32.4
			c-25.9-7-52.6-11-79.4-11.8c-13.5-0.4-26.9-0.1-40.3,1C1041.4,158.7,1041.4,163.7,1044.6,163.4L1044.6,163.4z"/>
	</g>
</g>
<g>
	<g>
		<path d="M1084.8,653c1,62.8,2,125.5,1,188.3c-0.5,31-1.4,62.1-3,93.1c-1.5,29.2-3.1,58.7-7.7,87.6c-4.8,30-13.4,59.6-29.7,85.4
			c-1.7,2.7,2.6,5.2,4.3,2.5c29.9-47.4,33.9-105.3,37.2-159.8c3.8-63.3,4.6-126.8,4.2-190.2c-0.2-35.7-0.8-71.4-1.3-107
			C1089.8,649.8,1084.8,649.8,1084.8,653L1084.8,653z"/>
	</g>
</g>
<g>
	<g>
		<path d="M1092.6,748c-57.8-4.2-115.3-11.6-172.3-22.2c-13.3-2.5-27.1-4.4-40.1-8.5c-11.9-3.8-21.1-11.1-26.8-22.3
			c-10.4-20.4-8.9-46.4-3.7-68c6.4-26.6,20.5-51,40.4-69.8c2.3-2.2-1.2-5.7-3.5-3.5c-18.2,17.1-31.7,38.9-39.2,62.8
			c-6.9,22-9.5,47.4-2.8,69.8c3.1,10.3,8.5,20.2,17,27c10.3,8.3,23.5,10.7,36.1,13.3c30.1,6.1,60.4,11.2,90.8,15.5
			c34.5,4.8,69.2,8.5,104,11C1095.8,753.3,1095.8,748.3,1092.6,748L1092.6,748z"/>
	</g>
</g>
<g>
	<g>
		<path d="M141.5,647c45.2,59.6,87.7,121.2,127.5,184.6c1.7,2.7,6,0.2,4.3-2.5c-39.7-63.4-82.3-124.9-127.5-184.6
			C143.9,642,139.5,644.5,141.5,647L141.5,647z"/>
	</g>
</g>
<g>
	<g>
		<path d="M149.7,642.8c-1.2-5.3,9.2-8.5,12.6-10c5.6-2.5,11.3-4.8,17.1-6.8c10.3-3.7,20.8-6.8,31.3-9.6
			c21.7-5.7,43.8-9.9,65.8-14.6c46.7-9.9,93.2-21,139.5-32.9c92-23.5,183.3-49.9,274.6-76.1c52.1-14.9,104.1-29.9,156.2-44.8
			c3.1-0.9,1.8-5.7-1.3-4.8c-94.9,27.2-189.7,54.8-284.8,81.5c-94.8,26.6-190.1,52-286.5,72.4c-25.2,5.4-50.6,10.1-75.4,17.3
			c-11.9,3.4-23.5,7.4-34.9,12.2c-7.1,3-21.4,7.2-19.1,17.5C145.6,647.3,150.4,645.9,149.7,642.8L149.7,642.8z"/>
	</g>
</g>
<g>
	<g>
		<path d="M1306.5,318.9c23.1-6.3,45.4-14.9,66.8-25.6c2.9-1.4,0.3-5.8-2.5-4.3c-21,10.5-43,18.9-65.6,25.1
			C1302.1,315,1303.4,319.8,1306.5,318.9L1306.5,318.9z"/>
	</g>
</g>
<g>
	<g>
		<path d="M145.3,101.5c-11.6-3.5-19.6,8.4-24.5,17.1c-6.1,10.8-10.4,22.7-12.8,34.9c-4.8,24.1-2.6,49.6,7,72.3
			c18,42.5,61.9,72.3,108.1,73.4c47.2,1.1,94.8-27.5,113.4-71.4c10.2-24.1,9-50-3.9-72.9c-11.9-21.1-31.1-38-51.9-49.9
			C234.9,78.7,177.2,75.2,129,96.6c-2.9,1.3-0.4,5.6,2.5,4.3c39.9-17.7,86.5-17.4,126.9-1.2c40,16.1,84,53.7,79.9,101.1
			c-4.1,46.9-47.7,83.1-91.8,91.4c-43.1,8.1-88.4-10.9-114.2-46.1c-15.1-20.6-22.5-46-21.8-71.5c0.4-13.1,2.9-26,7.5-38.3
			c2.3-6.3,5.3-12.3,8.7-18.1c3.5-5.8,9.3-14.5,17.2-12.1C147,107.2,148.4,102.4,145.3,101.5L145.3,101.5z"/>
	</g>
</g>
<g>
	<g>
		<path d="M208.5,191c0-25.7,0-51.3,0-77c0-3.2-5-3.2-5,0c0,25.7,0,51.3,0,77C203.5,194.2,208.5,194.2,208.5,191L208.5,191z"/>
	</g>
</g>
<g>
	<g>
		<path d="M210,194.5c24,0,48,0,72,0c3.2,0,3.2-5,0-5c-24,0-48,0-72,0C206.8,189.5,206.8,194.5,210,194.5L210,194.5z"/>
	</g>
</g>
</svg>
