<?xml version="1.0" encoding="utf-8"?>
<!-- Generator: Adobe Illustrator 18.1.1, SVG Export Plug-In . SVG Version: 6.00 Build 0)  -->
<svg version="1.1" xmlns="http://www.w3.org/2000/svg" xmlns:xlink="http://www.w3.org/1999/xlink" x="0px" y="0px"
	 viewBox="0 0 1080 1080" enable-background="new 0 0 1080 1080" xml:space="preserve">
<g id="Layer_1" display="none">
	<g display="inline">
		<path d="M521.3,202.8c28.4,1.1,55.8,17.1,70.9,41.2c8.7,13.8,13.9,30.5,26.7,40.6c13.2,10.4,31.3,11.2,48.1,12.7
			c32.6,2.9,66.2,10.9,91.6,31.6c25.4,20.7,40.5,56.7,29,87.4c-3.2,8.6-8.3,16.4-11.9,24.9c-14.7,34.4-4,73.5,1.7,110.4
			c3.3,21.4,4.7,43,4.4,64.7c-0.2,10.2-0.8,20.6-5.3,29.7c-10.1,20.2-35.3,27.1-57.7,30c-26.4,3.5-53,4.6-79.6,3.4
			c-20.4-0.9-41.3-3.2-61.1,2.3c-21.5,5.9-39.4,20.3-58.6,31.4c-40.5,23.5-88.9,33-135.3,26.6c-31.3-4.3-62.9-16.6-83.4-40.6
			s-27.2-61.4-9.9-87.9c13.8-21,38.6-31.2,60-44.4c21.4-13.2,42.2-34.9,38.3-59.8c-1.6-10.5-7.5-19.8-12.9-28.9
			c-16.5-27.9-29.8-57.8-39.4-88.8c-6.5-20.9-11.4-42.6-9.8-64.4c2.3-29.9,17.6-58.6,41.2-77.2S491.7,198,521.3,202.8"/>
	</g>
</g>
<g id="Layer_2">
	<g>
		<path d="M293.4,348.9c-10.7-37.7,4.2-81.3,35.8-104.4c44.1-32.4,105.5-22.2,158.4-7.8s110.7,31.3,160.6,8.7
			c14.8-6.7,28.4-16.8,44.3-19.9c27.4-5.4,54.4,11.1,74.2,30.9c48.2,48.1,70.7,120.5,58.4,187.4c-5.6,30.3-17.7,58.9-25.8,88.6
			c-15.9,57.9-16.5,119.9-1.7,178.1c8.5,33.3,21.3,70.8,3,99.9c-7.7,12.2-20,20.8-32.9,27.4c-68.3,34.6-150.6,16.8-223.4-6.7
			c-72.8-23.5-148.7-52.4-223.7-37.5c-34.1,6.7-70.3,22.1-101.8,7.4c-12.7-5.9-22.9-16.3-31.9-27.1c-20.3-24.4-36.5-54.1-36.5-85.8
			c0.1-28.2,13-54.8,27-79.2c20.3-35.3,43.7-68.8,69.8-100c13.4-16,27.6-31.6,37.8-49.8c18.4-33.1,21.8-74.3,9.1-110"/>
	</g>
</g>
</svg>
